<svg xmlns="http://www.w3.org/2000/svg" fill="white" viewBox="0 0 24 24">
  <path d="M12.04 2C6.55 2 2 6.55 2 12.04c0 2.12.69 4.09 1.86 5.69L2 22l4.42-1.82c1.53.84 3.29 1.32 5.17 1.32 5.5 0 10.04-4.55 10.04-10.06C21.63 6.55 17.09 2 12.04 2zm5.7 14.47c-.24.67-1.38 1.29-1.9 1.37-.49.08-1.09.12-1.76-.11-.41-.13-.94-.31-1.62-.61-2.85-1.24-4.7-4.13-4.86-4.33-.14-.19-1.16-1.55-1.16-2.97 0-1.42.73-2.12.99-2.41.24-.28.53-.36.7-.36.17 0 .35 0 .5.01.16.01.38-.06.6.46.24.57.82 1.97.9 2.11.07.14.12.3.02.48-.09.19-.14.31-.29.47-.14.16-.3.36-.43.48-.14.12-.28.26-.12.51.17.26.74 1.22 1.59 1.98 1.1.98 1.96 1.29 2.27 1.43.32.14.5.12.68-.07.17-.19.79-.92 1-1.24.22-.31.42-.26.7-.16.28.1 1.77.83 2.08.98.3.14.5.22.57.34.07.1.07.67-.17 1.33z"/>
</svg>
